<mxfile host="app.diagrams.net" agent="Mozilla/5.0 (Windows NT 10.0; Win64; x64) AppleWebKit/537.36 (KHTML, like Gecko) Chrome/129.0.0.0 Safari/537.36" version="24.7.17">
  <diagram name="Page-1" id="rq4J1qLK_IonUPmO__ah">
    <mxGraphModel dx="1191" dy="548" grid="1" gridSize="10" guides="1" tooltips="1" connect="1" arrows="1" fold="1" page="1" pageScale="1" pageWidth="850" pageHeight="1100" math="0" shadow="0">
      <root>
        <mxCell id="0" />
        <mxCell id="1" parent="0" />
        <mxCell id="QJ5PGhtFOq5F7lpbPO0n-10" style="rounded=0;orthogonalLoop=1;jettySize=auto;html=1;shape=link;" edge="1" parent="1" source="QJ5PGhtFOq5F7lpbPO0n-1" target="QJ5PGhtFOq5F7lpbPO0n-7">
          <mxGeometry relative="1" as="geometry" />
        </mxCell>
        <mxCell id="QJ5PGhtFOq5F7lpbPO0n-1" value="User" style="shape=umlActor;verticalLabelPosition=bottom;verticalAlign=top;html=1;outlineConnect=0;" vertex="1" parent="1">
          <mxGeometry x="200" y="530" width="30" height="60" as="geometry" />
        </mxCell>
        <mxCell id="QJ5PGhtFOq5F7lpbPO0n-2" value="Admin" style="shape=umlActor;verticalLabelPosition=bottom;verticalAlign=top;html=1;outlineConnect=0;" vertex="1" parent="1">
          <mxGeometry x="130" y="680" width="30" height="60" as="geometry" />
        </mxCell>
        <mxCell id="QJ5PGhtFOq5F7lpbPO0n-3" value="Manager" style="shape=umlActor;verticalLabelPosition=bottom;verticalAlign=top;html=1;outlineConnect=0;" vertex="1" parent="1">
          <mxGeometry x="240" y="670" width="30" height="60" as="geometry" />
        </mxCell>
        <mxCell id="QJ5PGhtFOq5F7lpbPO0n-4" value="" style="endArrow=block;endSize=16;endFill=0;html=1;rounded=0;" edge="1" parent="1" source="QJ5PGhtFOq5F7lpbPO0n-2" target="QJ5PGhtFOq5F7lpbPO0n-1">
          <mxGeometry width="160" relative="1" as="geometry">
            <mxPoint x="380" y="710" as="sourcePoint" />
            <mxPoint x="540" y="710" as="targetPoint" />
          </mxGeometry>
        </mxCell>
        <mxCell id="QJ5PGhtFOq5F7lpbPO0n-6" value="" style="endArrow=block;endSize=16;endFill=0;html=1;rounded=0;exitX=0.5;exitY=0.5;exitDx=0;exitDy=0;exitPerimeter=0;" edge="1" parent="1" source="QJ5PGhtFOq5F7lpbPO0n-3" target="QJ5PGhtFOq5F7lpbPO0n-1">
          <mxGeometry width="160" relative="1" as="geometry">
            <mxPoint x="169" y="690" as="sourcePoint" />
            <mxPoint x="211" y="600" as="targetPoint" />
          </mxGeometry>
        </mxCell>
        <mxCell id="QJ5PGhtFOq5F7lpbPO0n-7" value="Đăng nhập" style="ellipse;whiteSpace=wrap;html=1;" vertex="1" parent="1">
          <mxGeometry x="390" y="525" width="140" height="70" as="geometry" />
        </mxCell>
        <mxCell id="QJ5PGhtFOq5F7lpbPO0n-11" value="" style="line;strokeWidth=1;fillColor=none;align=left;verticalAlign=middle;spacingTop=-1;spacingLeft=3;spacingRight=3;rotatable=0;labelPosition=right;points=[];portConstraint=eastwest;strokeColor=inherit;" vertex="1" parent="1">
          <mxGeometry x="440" y="590" width="40" height="8" as="geometry" />
        </mxCell>
      </root>
    </mxGraphModel>
  </diagram>
</mxfile>
